<svg width="13" height="24" viewBox="0 0 12.5 24" fill="none" xmlns="http://www.w3.org/2000/svg">
<g clip-path="url(#clip0_549_19)">
<path fill-rule="evenodd" clip-rule="evenodd" d="M6 7.75C7.13817 7.75 8.18695 8.13103 9.02734 8.77148C9.13079 8.32945 9.52643 8.00001 10 8H11.5C11.7022 8 11.8845 8.1218 11.9619 8.30859C12.0393 8.49543 11.9965 8.71052 11.8535 8.85352C11.7112 8.99587 11.5691 9.11409 11.4561 9.20996C11.3365 9.31132 11.2523 9.38541 11.1846 9.46094C11.0767 9.58119 11 9.71324 11 10V19.25C11 22.0114 8.76142 24.25 6 24.25C4.61956 24.25 3.36857 23.6889 2.46484 22.7852C2.07432 22.3946 2.07432 21.7616 2.46484 21.3711C2.85539 20.9809 3.48848 20.9807 3.87891 21.3711C4.42289 21.9151 5.1713 22.25 6 22.25C7.63236 22.25 8.95915 20.9462 8.99805 19.3232C8.15717 19.9209 7.11593 20.25 6 20.25C3.28063 20.25 1 18.3026 1 15.25V12.75C1 9.98858 3.23858 7.75 6 7.75ZM6 9.75C4.34315 9.75 3 11.0931 3 12.75V15.25C3 17.1157 4.3011 18.25 6 18.25C7.6989 18.25 9 17.1157 9 15.25V12.75C9 11.0931 7.65685 9.75 6 9.75Z" fill="black"/>
</g>
<defs>
<clipPath id="clip0_549_19">
<rect width="12.5" height="24" fill="white"/>
</clipPath>
</defs>
</svg>
