<svg width="10" height="24" viewBox="0 0 9.62 24" fill="none" xmlns="http://www.w3.org/2000/svg">
<g clip-path="url(#clip0_539_166)">
<path d="M6.50026 7.75C7.60445 7.75007 8.60568 8.19917 9.32838 8.92188C9.71874 9.31237 9.71874 9.94545 9.32838 10.3359C8.93788 10.7262 8.30478 10.7263 7.91432 10.3359C7.55135 9.97297 7.05272 9.75007 6.50026 9.75C5.39569 9.75 4.50026 10.6454 4.50026 11.75V18C4.50026 18.1432 4.55495 18.2617 4.86842 18.4365C5.02833 18.5256 5.22377 18.6103 5.4612 18.7109C5.69089 18.8083 5.95759 18.9196 6.22389 19.0527C6.43088 19.1566 6.53973 19.3898 6.48659 19.6152C6.43313 19.8403 6.23162 19.9997 6.00026 20H1.00026C0.768688 20 0.567512 19.8404 0.513931 19.6152C0.460665 19.3896 0.569251 19.1564 0.776627 19.0527C1.04291 18.9197 1.3097 18.8083 1.53932 18.7109C1.77666 18.6103 1.97226 18.5256 2.1321 18.4365C2.44499 18.2619 2.50026 18.1431 2.50026 18V10C2.50026 9.71335 2.42351 9.58116 2.31569 9.46094C2.24794 9.38544 2.16369 9.31125 2.0442 9.20996C1.93115 9.11412 1.78906 8.99581 1.64674 8.85352C1.50375 8.71052 1.46095 8.49543 1.53835 8.30859C1.61577 8.12185 1.79809 8 2.00026 8H3.50026C3.83023 8.00009 4.1219 8.1607 4.30397 8.40723C4.93446 7.99214 5.68896 7.75 6.50026 7.75Z" fill="black"/>
</g>
<defs>
<clipPath id="clip0_539_166">
<rect width="9.62" height="24" fill="white"/>
</clipPath>
</defs>
</svg>
