<svg width="13" height="24" viewBox="0 0 13 24" fill="none" xmlns="http://www.w3.org/2000/svg">
<path d="M3.99999 8C4.20218 8.00001 4.3845 8.1218 4.4619 8.30859C4.53928 8.49542 4.49649 8.71052 4.3535 8.85352C4.2172 8.98982 4.07588 9.11166 3.97948 9.19922C3.87357 9.29543 3.81054 9.35954 3.76854 9.41797C3.73263 9.46798 3.71422 9.51099 3.70604 9.56348C3.69696 9.62191 3.69698 9.71987 3.73631 9.88281L5.52635 17.4795C5.63268 17.9305 6.03587 18.2498 6.49999 18.25C6.96386 18.2499 7.36721 17.9308 7.47362 17.4795L9.26366 9.88281C9.303 9.71987 9.30301 9.62191 9.29393 9.56348C9.28575 9.51099 9.26734 9.46799 9.23143 9.41797C9.18944 9.35953 9.12641 9.29544 9.02049 9.19922C8.92409 9.11166 8.78278 8.98983 8.64647 8.85352C8.50347 8.71052 8.46068 8.49543 8.53807 8.30859C8.61548 8.12179 8.79778 8 8.99999 8H12C12.2022 8 12.3845 8.12179 12.4619 8.30859C12.5393 8.49543 12.4965 8.71052 12.3535 8.85352C12.2083 8.99867 12.0637 9.11739 11.9394 9.21777C11.8095 9.32274 11.7099 9.40162 11.6191 9.48828C11.459 9.64128 11.3372 9.80806 11.2676 10.1113L9.41991 17.9385C9.10062 19.2927 7.89202 20.2495 6.50096 20.25C5.10992 20.2498 3.89952 19.2932 3.58006 17.9385L1.73241 10.1113C1.66277 9.80806 1.54101 9.64127 1.38085 9.48828C1.29012 9.40163 1.19045 9.32273 1.06053 9.21777C0.936276 9.11739 0.791623 8.99867 0.64647 8.85352C0.503471 8.71052 0.460681 8.49543 0.538072 8.30859C0.61548 8.1218 0.797781 8 0.999986 8H3.99999Z" fill="black"/>
</svg>
