<svg width="16" height="24" viewBox="0 0 16 24" fill="none" xmlns="http://www.w3.org/2000/svg">
<path fill-rule="evenodd" clip-rule="evenodd" d="M8.99978 4C11.4847 4.00037 13.4998 6.01495 13.4998 8.5C13.4998 9.7047 13.0246 10.7978 12.2537 11.6055C13.596 12.3842 14.4998 13.8364 14.4998 15.5C14.4998 17.9851 12.4847 19.9996 9.99978 20H0.999777C0.768113 20 0.566962 19.8406 0.513449 19.6152C0.460172 19.3895 0.568737 19.1564 0.776144 19.0527C1.04269 18.9195 1.309 18.8084 1.53884 18.7109C1.77655 18.6102 1.9716 18.5257 2.13161 18.4365C2.44511 18.2617 2.49978 18.1432 2.49978 18V6C2.49978 5.85674 2.44541 5.73844 2.13161 5.56348C1.97152 5.47428 1.7767 5.38988 1.53884 5.28906C1.30891 5.19161 1.04279 5.08056 0.776144 4.94727C0.568762 4.84355 0.46018 4.61044 0.513449 4.38477C0.566923 4.15939 0.768097 4.00002 0.999777 4H8.99978ZM4.49978 18H9.99978C11.3802 17.9996 12.4998 16.8805 12.4998 15.5C12.4998 14.1195 11.3802 13.0004 9.99978 13H4.49978V18ZM4.49978 11H8.99978C10.3802 10.9996 11.4998 9.88048 11.4998 8.5C11.4998 7.11952 10.3802 6.00037 8.99978 6H4.49978V11Z" fill="black"/>
</svg>
