<svg width="5" height="24" viewBox="0 0 5 24" fill="none" xmlns="http://www.w3.org/2000/svg">
<g clip-path="url(#clip0_545_69)">
<path d="M3.50005 21.25C3.50005 22.9068 2.15686 24.25 0.500047 24.25C-0.328084 24.25 -1.07925 23.9129 -1.62105 23.3711C-2.01157 22.9806 -2.01157 22.3476 -1.62105 21.957C-1.23051 21.5667 -0.597445 21.5666 -0.206985 21.957C-0.0249285 22.1391 0.223649 22.25 0.500047 22.25C1.05229 22.25 1.50005 21.8023 1.50005 21.25V10C1.50005 9.71336 1.42329 9.58115 1.31548 9.46094C1.24775 9.38548 1.16342 9.3112 1.04399 9.20996C0.930956 9.11414 0.788792 8.99576 0.646531 8.85352C0.503622 8.71053 0.460796 8.49538 0.538133 8.30859C0.615541 8.12191 0.797952 8.00007 1.00005 8H4.00005C4.20212 8.00011 4.38458 8.12192 4.46196 8.30859C4.53927 8.49535 4.49642 8.71054 4.35356 8.85352C4.2113 8.99576 4.06915 9.11414 3.9561 9.20996C3.83666 9.31121 3.75235 9.38548 3.68462 9.46094C3.57678 9.58117 3.50005 9.71331 3.50005 10V21.25Z" fill="black"/>
<path d="M2.50005 3.75C3.19028 3.75014 3.75005 4.30973 3.75005 5C3.75005 5.69027 3.19028 6.24986 2.50005 6.25C1.80978 6.24989 1.25005 5.69029 1.25005 5C1.25005 4.30971 1.80978 3.75011 2.50005 3.75Z" fill="black"/>
</g>
<defs>
<clipPath id="clip0_545_69">
<rect width="5" height="24" fill="white"/>
</clipPath>
</defs>
</svg>
