<svg width="8" height="24" viewBox="0 0 7.41 24" fill="none" xmlns="http://www.w3.org/2000/svg">
<path d="M2.5 4.75C3.05228 4.75 3.5 5.19772 3.5 5.75V8H5.5C6.05228 8 6.5 8.44772 6.5 9C6.5 9.55228 6.05228 10 5.5 10H3.5V17.25C3.5 17.8023 3.94772 18.25 4.5 18.25C4.77642 18.25 5.02497 18.1391 5.20703 17.957C5.5975 17.5666 6.23056 17.5667 6.62109 17.957C7.01162 18.3476 7.01162 18.9806 6.62109 19.3711C6.0793 19.9129 5.32815 20.25 4.5 20.25C2.84315 20.25 1.5 18.9069 1.5 17.25V5.75C1.5 5.19772 1.94772 4.75 2.5 4.75Z" fill="black"/>
</svg>
