<svg width="11" height="24" viewBox="0 0 11 24" fill="none" xmlns="http://www.w3.org/2000/svg">
<path fill-rule="evenodd" clip-rule="evenodd" d="M6 8C8.20914 8 10 9.79086 10 12C10 13.6569 8.65685 15 7 15H3V15.25C3 16.9069 4.34314 18.25 6 18.25C6.8287 18.25 7.57711 17.9151 8.12109 17.3711C8.51152 16.9807 9.14461 16.9809 9.53516 17.3711C9.92568 17.7616 9.92568 18.3946 9.53516 18.7852C8.63143 19.6889 7.38043 20.25 6 20.25C3.23857 20.25 1 18.0114 1 15.25V13C1 10.2386 3.23857 8 6 8ZM6 10C4.34314 10 3 11.3431 3 13H7C7.55228 13 8 12.5523 8 12C8 10.8954 7.10457 10 6 10Z" fill="black"/>
</svg>
