<svg width="12" height="24" viewBox="0 0 12 24" fill="none" xmlns="http://www.w3.org/2000/svg">
<g clip-path="url(#clip0_532_88)">
<path d="M7.50026 8C8.8806 8.00007 10.1317 8.56117 11.0354 9.46484C11.4258 9.85534 11.4258 10.4884 11.0354 10.8789C10.6449 11.2691 10.0118 11.2692 9.62136 10.8789C9.07742 10.335 8.32886 10.0001 7.50026 10C5.84341 10 4.50026 11.3431 4.50026 13V18C4.50026 18.1432 4.55494 18.2617 4.86843 18.4365C5.02833 18.5256 5.22377 18.6103 5.4612 18.7109C5.69089 18.8083 5.95759 18.9196 6.22389 19.0527C6.43089 19.1566 6.53973 19.3898 6.48659 19.6152C6.43313 19.8403 6.23163 19.9997 6.00026 20H1.00026C0.768681 20 0.567516 19.8405 0.513934 19.6152C0.460663 19.3896 0.569241 19.1564 0.776629 19.0527C1.04292 18.9197 1.3097 18.8083 1.53932 18.7109C1.77667 18.6103 1.97226 18.5256 2.1321 18.4365C2.44499 18.2619 2.50026 18.1431 2.50026 18V13C2.50026 10.2386 4.73884 8 7.50026 8Z" fill="black"/>
</g>
<defs>
<clipPath id="clip0_532_88">
<rect width="11.33" height="24" fill="white"/>
</clipPath>
</defs>
</svg>
