<svg width="13" height="24" viewBox="0 0 12.5 24" fill="none" xmlns="http://www.w3.org/2000/svg">
<path fill-rule="evenodd" clip-rule="evenodd" d="M6 7.75C7.13785 7.75006 8.18705 8.13033 9.02734 8.77051C9.13113 8.32894 9.52676 8.00001 10 8H11.5C11.7022 8 11.8845 8.1218 11.9619 8.30859C12.0393 8.49543 11.9965 8.71052 11.8535 8.85352C11.7112 8.99587 11.5691 9.11409 11.4561 9.20996C11.3365 9.31132 11.2523 9.38541 11.1846 9.46094C11.0767 9.58119 11 9.71324 11 10V22C11 22.2865 11.0768 22.4189 11.1846 22.5391C11.2523 22.6145 11.3367 22.6889 11.4561 22.79C11.5691 22.8858 11.7113 23.0043 11.8535 23.1465C11.9964 23.2895 12.0392 23.5047 11.9619 23.6914C11.8845 23.878 11.702 23.9999 11.5 24H8.5C8.29805 23.9998 8.11545 23.878 8.03809 23.6914C7.96085 23.5047 8.00375 23.2894 8.14648 23.1465C8.28866 23.0043 8.43094 22.8858 8.54395 22.79C8.66328 22.6889 8.74773 22.6145 8.81543 22.5391C8.92324 22.4188 9 22.2866 9 22V19.3223C8.15894 19.9205 7.11646 20.2499 6 20.25C3.28085 20.2498 1 18.3024 1 15.25V12.75C1 9.98875 3.23881 7.75028 6 7.75ZM6 9.75C4.34338 9.75027 3 11.0933 3 12.75V15.25C3 17.1155 4.30134 18.2498 6 18.25C7.69877 18.2499 9 17.1156 9 15.25V12.75C9 11.0932 7.65673 9.75014 6 9.75Z" fill="black"/>
</svg>
