<svg width="13" height="24" viewBox="0 0 13 24" fill="none" xmlns="http://www.w3.org/2000/svg">
<path fill-rule="evenodd" clip-rule="evenodd" d="M3.00005 1.75C3.55229 1.75005 4.00005 2.19775 4.00005 2.75V8.75C4.83573 8.12226 5.87439 7.75 7.00005 7.75C9.76142 7.75005 12 9.98861 12 12.75V15.25C12 18.2614 9.76142 20.25 7.00005 20.25C5.85434 20.25 4.79927 19.9067 3.9561 19.291C3.83144 19.7012 3.45095 19.9999 3.00005 20H1.00005C0.779734 20 0.585399 19.8554 0.521533 19.6445C0.457865 19.4337 0.53947 19.2061 0.722705 19.084C0.928471 18.9468 1.13356 18.8331 1.30474 18.7363C1.48399 18.635 1.62173 18.5547 1.73345 18.4717C1.84128 18.3915 1.90291 18.3242 1.9395 18.2617C1.97294 18.2045 2.00005 18.1264 2.00005 18V2.75C2.00005 2.19772 2.44776 1.75 3.00005 1.75ZM7.00005 9.75C5.34319 9.75 4.00005 11.0931 4.00005 12.75V15.25C4.00005 17.1569 5.34319 18.25 7.00005 18.25C8.65686 18.25 10 17.1568 10 15.25V12.75C10 11.0932 8.65686 9.75005 7.00005 9.75Z" fill="black"/>
</svg>
