<svg width="8" height="24" viewBox="0 0 7.91 24" fill="none" xmlns="http://www.w3.org/2000/svg">
<g clip-path="url(#clip0_539_179)">
<path d="M2 17.25V10H1C0.447715 10 0 9.55228 0 9C0 8.44772 0.447715 8 1 8H2V5.75C2 5.19772 2.44772 4.75 3 4.75C3.55228 4.75 4 5.19772 4 5.75V8H6.25C6.80228 8 7.25 8.44772 7.25 9C7.25 9.55228 6.80228 10 6.25 10H4V17.25C4 17.8023 4.44772 18.25 5 18.25C5.27642 18.25 5.52497 18.1391 5.70703 17.957C6.0975 17.5666 6.73056 17.5667 7.12109 17.957C7.51162 18.3476 7.51162 18.9806 7.12109 19.3711C6.5793 19.9129 5.82815 20.25 5 20.25C3.34315 20.25 2 18.9069 2 17.25Z" fill="black"/>
</g>
<defs>
<clipPath id="clip0_539_179">
<rect width="7.91" height="24" fill="white"/>
</clipPath>
</defs>
</svg>
