<svg width="23" height="24" viewBox="0 0 23 24" fill="none" xmlns="http://www.w3.org/2000/svg">
<path d="M15.5003 7.75C18.2617 7.75 20.5003 9.98858 20.5003 12.75V18C20.5003 18.1432 20.5552 18.2618 20.8684 18.4365C21.0283 18.5256 21.2237 18.6103 21.4612 18.7109C21.6909 18.8083 21.9575 18.9196 22.2239 19.0527C22.4313 19.1564 22.5399 19.3896 22.4866 19.6152C22.433 19.8405 22.2319 20 22.0003 20H17.0003C16.7689 19.9997 16.5674 19.8403 16.5139 19.6152C16.4608 19.3898 16.5697 19.1566 16.7766 19.0527C17.0429 18.9196 17.3096 18.8083 17.5393 18.7109C17.7767 18.6103 17.9722 18.5256 18.1321 18.4365C18.4456 18.2617 18.5003 18.1432 18.5003 18V12.75C18.5003 11.0931 17.1571 9.75 15.5003 9.75C13.8436 9.75028 12.5003 11.0933 12.5003 12.75V18C12.5003 18.1432 12.5552 18.2618 12.8684 18.4365C13.0283 18.5256 13.2237 18.6103 13.4612 18.7109C13.6909 18.8083 13.9575 18.9196 14.2239 19.0527C14.4313 19.1564 14.5399 19.3896 14.4866 19.6152C14.433 19.8405 14.2319 20 14.0003 20H9.00026C8.76866 20 8.56748 19.8405 8.51393 19.6152C8.46067 19.3896 8.56926 19.1564 8.77663 19.0527C9.04303 18.9196 9.3096 18.8083 9.53932 18.7109C9.77683 18.6103 9.97218 18.5256 10.1321 18.4365C10.4453 18.2618 10.5003 18.1432 10.5003 18V12.75C10.5003 11.0933 9.15688 9.75028 7.50026 9.75C5.84341 9.75 4.50026 11.0931 4.50026 12.75V18C4.50026 18.1432 4.55494 18.2617 4.86842 18.4365C5.02833 18.5256 5.22378 18.6103 5.4612 18.7109C5.69089 18.8083 5.9576 18.9196 6.22389 19.0527C6.43087 19.1566 6.53972 19.3898 6.48659 19.6152C6.43313 19.8403 6.23161 19.9997 6.00026 20H1.00026C0.768652 20 0.567477 19.8405 0.513932 19.6152C0.460664 19.3896 0.569248 19.1564 0.776627 19.0527C1.04303 18.9196 1.3096 18.8083 1.53932 18.7109C1.77684 18.6103 1.97218 18.5256 2.1321 18.4365C2.44529 18.2618 2.50026 18.1432 2.50026 18V10C2.50026 9.71334 2.42351 9.58116 2.31569 9.46094C2.24794 9.38544 2.16369 9.31125 2.04421 9.20996C1.93115 9.11412 1.78906 8.99581 1.64674 8.85352C1.50375 8.71052 1.46096 8.49543 1.53835 8.30859C1.61577 8.12185 1.79809 8 2.00026 8H3.50026C3.97366 8.00013 4.36845 8.32961 4.47194 8.77148C5.31243 8.13075 6.36181 7.75 7.50026 7.75C9.13586 7.75016 10.5881 8.53569 11.5003 9.75C12.4124 8.53569 13.8647 7.75016 15.5003 7.75Z" fill="black"/>
</svg>
