<svg width="12" height="24" viewBox="0 0 12 24" fill="none" xmlns="http://www.w3.org/2000/svg">
<path fill-rule="evenodd" clip-rule="evenodd" d="M8.04199 19.29C7.19348 19.9081 6.13579 20.25 5 20.25H4C2.34315 20.25 1 18.9069 1 17.25V17C1 14.7909 2.79086 13 5 13H8V12.75C8 11.0931 6.65685 9.75 5 9.75C4.17132 9.75002 3.42288 10.0849 2.87891 10.6289C2.48847 11.0193 1.85538 11.0191 1.46484 10.6289C1.07433 10.2384 1.07435 9.60537 1.46484 9.21484C2.36856 8.31113 3.61959 7.75002 5 7.75C7.76143 7.75 10 9.98858 10 12.75V18C10 18.1264 10.0271 18.2045 10.0605 18.2617C10.0972 18.3243 10.1587 18.3915 10.2666 18.4717C10.3783 18.5547 10.516 18.635 10.6953 18.7363C10.8665 18.8331 11.0715 18.9468 11.2773 19.084C11.4606 19.2061 11.5422 19.4337 11.4785 19.6445C11.4147 19.8554 11.2203 20 11 20H9C8.54851 20 8.16624 19.701 8.04199 19.29ZM5 15C3.89543 15 3 15.8954 3 17V17.25C3 17.8023 3.44772 18.25 4 18.25H5C6.6989 18.25 8 17.1157 8 15.25V15H5Z" fill="black"/>
</svg>
