<svg width="16" height="24" viewBox="0 0 16 24" fill="none" xmlns="http://www.w3.org/2000/svg">
<g clip-path="url(#clip0_522_85)">
<path fill-rule="evenodd" clip-rule="evenodd" d="M8.00027 4C11.3139 4.00012 14.0003 6.68637 14.0003 10V18L14.0032 18.0527C14.0178 18.1737 14.0935 18.2833 14.3684 18.4365C14.5286 18.5258 14.7231 18.61 14.9612 18.7109C15.1913 18.8084 15.4571 18.9193 15.7239 19.0527C15.9312 19.1565 16.0398 19.3896 15.9866 19.6152C15.9332 19.8406 15.7319 19.9999 15.5003 20H10.5003C10.2685 20 10.0674 19.8407 10.0139 19.6152C9.96066 19.3895 10.0692 19.1564 10.2766 19.0527C10.5434 18.9194 10.8093 18.8084 11.0393 18.7109C11.2774 18.61 11.4719 18.5258 11.6321 18.4365C11.907 18.2833 11.9827 18.1737 11.9973 18.0527L12.0003 18V14H4.00027V18L4.0032 18.0527C4.01782 18.1737 4.09348 18.2833 4.36843 18.4365C4.52862 18.5258 4.72315 18.61 4.9612 18.7109C5.19126 18.8084 5.45712 18.9193 5.7239 19.0527C5.93119 19.1565 6.03983 19.3896 5.98659 19.6152C5.93319 19.8406 5.73193 19.9999 5.50027 20H0.500266C0.268531 20 0.0673764 19.8407 0.0139375 19.6152C-0.0393397 19.3895 0.0692251 19.1564 0.276633 19.0527C0.543419 18.9194 0.809283 18.8084 1.03933 18.7109C1.27738 18.61 1.47192 18.5258 1.6321 18.4365C1.90696 18.2833 1.98273 18.1737 1.99734 18.0527L2.00027 18V10C2.00027 6.68629 4.68656 4 8.00027 4ZM8.00027 6C5.79113 6 4.00027 7.79086 4.00027 10V12H12.0003V10C12.0003 7.79094 10.2093 6.00012 8.00027 6Z" fill="white"/>
</g>
<defs>
<clipPath id="clip0_522_85">
<rect width="16" height="24" fill="white"/>
</clipPath>
</defs>
</svg>
