<svg width="13" height="24" viewBox="0 0 12.5 24" fill="none" xmlns="http://www.w3.org/2000/svg">
<path fill-rule="evenodd" clip-rule="evenodd" d="M6.49999 7.75C9.26126 7.75017 11.5 9.98868 11.5 12.75V15.25C11.5 18.3024 9.21922 20.2498 6.49999 20.25C5.38348 20.2499 4.34106 19.9206 3.49999 19.3223V22C3.49999 22.2866 3.57675 22.4189 3.68456 22.5391C3.75227 22.6145 3.83666 22.6888 3.95604 22.79C4.06906 22.8858 4.21128 23.0043 4.3535 23.1465C4.49633 23.2895 4.53919 23.5047 4.4619 23.6914C4.38451 23.878 4.20202 23.9999 3.99999 24H0.999986C0.797941 23.9999 0.615468 23.878 0.538072 23.6914C0.460768 23.5047 0.503618 23.2895 0.64647 23.1465C0.788698 23.0043 0.93091 22.8858 1.04393 22.79C1.16332 22.6888 1.2477 22.6145 1.31542 22.5391C1.42322 22.4189 1.49999 22.2866 1.49999 22V10C1.49999 9.71325 1.42329 9.58119 1.31542 9.46094C1.24764 9.38541 1.16349 9.31132 1.04393 9.20996C0.93084 9.11409 0.788823 8.99587 0.64647 8.85352C0.503472 8.71052 0.460681 8.49543 0.538072 8.30859C0.61548 8.1218 0.797781 8 0.999986 8H2.49999C2.97347 8.00001 3.36814 8.32956 3.47167 8.77148C4.31216 8.13074 5.36159 7.75007 6.49999 7.75ZM6.49999 9.75C4.84327 9.75016 3.49999 11.0932 3.49999 12.75V15.25C3.49999 17.1156 4.80123 18.2499 6.49999 18.25C8.19874 18.2499 9.49999 17.1156 9.49999 15.25V12.75C9.49999 11.0932 8.1567 9.75016 6.49999 9.75Z" fill="black"/>
</svg>
