<svg width="12" height="24" viewBox="0 0 12 24" fill="none" xmlns="http://www.w3.org/2000/svg">
<path d="M1 17C1 15.7431 1.77275 14.6693 2.86523 14.2227L8.36523 11.9316L8.375 11.9277C8.74323 11.7786 9 11.418 9 11C9 10.4477 8.55228 10 8 10H2C1.44772 10 1 9.55228 1 9C1 8.44772 1.44772 8 2 8H8C9.65685 8 11 9.34315 11 11C11 12.2571 10.2265 13.3298 9.13379 13.7764L9.13477 13.7773L3.63477 16.0684L3.625 16.0723C3.25677 16.2214 3 16.582 3 17C3 17.5523 3.44772 18 4 18H10C10.5523 18 11 18.4477 11 19C11 19.5523 10.5523 20 10 20H4C2.34315 20 1 18.6569 1 17Z" fill="black"/>
</svg>
