<svg width="14" height="24" viewBox="0 0 14 24" fill="none" xmlns="http://www.w3.org/2000/svg">
<g clip-path="url(#clip0_524_142)">
<path fill-rule="evenodd" clip-rule="evenodd" d="M8.50027 4C10.9852 4.00037 13.0003 6.01495 13.0003 8.5C13.0003 9.7047 12.5251 10.7978 11.7542 11.6055C13.0965 12.3842 14.0003 13.8364 14.0003 15.5C14.0003 17.9851 11.9852 19.9996 9.50027 20H0.500266C0.268601 20 0.0674499 19.8406 0.0139374 19.6152C-0.0393396 19.3895 0.069225 19.1564 0.276633 19.0527C0.543174 18.9195 0.809492 18.8084 1.03933 18.7109C1.27703 18.6102 1.47209 18.5257 1.6321 18.4365C1.9456 18.2617 2.00027 18.1432 2.00027 18V6C2.00027 5.85674 1.9459 5.73844 1.6321 5.56348C1.47201 5.47428 1.27719 5.38988 1.03933 5.28906C0.809398 5.19161 0.54328 5.08056 0.276633 4.94727C0.0692502 4.84355 -0.0393313 4.61044 0.0139374 4.38477C0.0674108 4.15939 0.268585 4.00002 0.500266 4H8.50027ZM4.00027 18H9.50027C10.8807 17.9996 12.0003 16.8805 12.0003 15.5C12.0003 14.1195 10.8807 13.0004 9.50027 13H4.00027V18ZM4.00027 11H8.50027C9.88066 10.9996 11.0003 9.88048 11.0003 8.5C11.0003 7.11952 9.88066 6.00037 8.50027 6H4.00027V11Z" fill="white"/>
</g>
<defs>
<clipPath id="clip0_524_142">
<rect width="14" height="24" fill="white"/>
</clipPath>
</defs>
</svg>
