<svg width="10" height="24" viewBox="0 0 10 24" fill="none" xmlns="http://www.w3.org/2000/svg">
<g clip-path="url(#clip0_532_92)">
<path d="M1 15.25V13C1 10.2386 3.23858 8 6 8C7.38044 8 8.63143 8.56112 9.53516 9.46484C9.92568 9.85537 9.92568 10.4884 9.53516 10.8789C9.14461 11.2691 8.51152 11.2693 8.12109 10.8789C7.57711 10.3349 6.8287 10 6 10C4.34315 10 3 11.3431 3 13V15.25C3 17.1569 4.34315 18.25 6 18.25C6.8287 18.25 7.57711 17.9151 8.12109 17.3711C8.51152 16.9807 9.14461 16.9809 9.53516 17.3711C9.92568 17.7616 9.92568 18.3946 9.53516 18.7852C8.63143 19.6889 7.38043 20.25 6 20.25C3.23858 20.25 1 18.2614 1 15.25Z" fill="black"/>
</g>
<defs>
<clipPath id="clip0_532_92">
<rect width="9.83" height="24" fill="white"/>
</clipPath>
</defs>
</svg>
