<svg width="21" height="24" viewBox="0 0 21 24" fill="none" xmlns="http://www.w3.org/2000/svg">
<path d="M10.5 7.75C12.0197 7.75019 13.2782 8.88219 13.4726 10.3516L14.5107 17.3955C14.5839 17.8915 15.0132 18.2566 15.5137 18.25C16.0146 18.243 16.4335 17.8663 16.4931 17.3691L17.3857 9.88086C17.4055 9.63577 17.3506 9.53241 17.2773 9.44238C17.222 9.37432 17.1469 9.30435 17.0332 9.20508C16.9272 9.11249 16.7865 8.99357 16.6465 8.85352C16.5035 8.71052 16.4607 8.49543 16.5381 8.30859C16.6155 8.12179 16.7978 8 17 8H20C20.2022 8 20.3845 8.12179 20.4619 8.30859C20.5393 8.49543 20.4965 8.71052 20.3535 8.85352C20.2094 8.99765 20.0659 9.11632 19.9463 9.21484C19.8207 9.31825 19.7269 9.39463 19.6465 9.47656C19.5268 9.59857 19.4369 9.72964 19.3926 9.95605L18.4785 17.6055C18.3001 19.0984 17.0441 20.2293 15.541 20.25C14.0374 20.2702 12.7512 19.1734 12.5322 17.6865L11.4922 10.6211C11.4311 10.1326 11.0089 9.75019 10.5 9.75C9.99107 9.75024 9.56881 10.1327 9.5078 10.6211L8.46776 17.6865C8.24873 19.1735 6.96259 20.2703 5.45897 20.25C3.95591 20.2292 2.69887 19.0984 2.52049 17.6055L1.60545 9.94629C1.56042 9.72586 1.47147 9.5968 1.3535 9.47656C1.27311 9.39463 1.17925 9.31825 1.0537 9.21484C0.934066 9.11632 0.790602 8.99765 0.64647 8.85352C0.503471 8.71052 0.460681 8.49543 0.538072 8.30859C0.61548 8.1218 0.797781 8 0.999986 8H3.99999C4.20218 8.00001 4.3845 8.1218 4.4619 8.30859C4.53928 8.49542 4.49649 8.71052 4.3535 8.85352C4.21346 8.99356 4.07281 9.11249 3.96678 9.20508C3.85313 9.30434 3.77802 9.37433 3.72264 9.44238C3.64808 9.53405 3.59019 9.6397 3.61327 9.89453L4.50585 17.3691C4.56545 17.8663 4.98536 18.2429 5.48631 18.25C5.98676 18.2566 6.4161 17.8915 6.48924 17.3955L7.52635 10.3516C7.72078 8.88218 8.9803 7.75024 10.5 7.75Z" fill="black"/>
</svg>
