<svg width="15" height="24" viewBox="0 0 15 24" fill="none" xmlns="http://www.w3.org/2000/svg">
<path d="M4.50098 2.75C4.50098 2.19788 4.05304 1.75026 3.50098 1.75C2.94869 1.75 2.5 2.19772 2.5 2.75V18C2.5 18.1432 2.44481 18.2618 2.13161 18.4365C1.97169 18.5256 1.77637 18.6103 1.53884 18.7109C1.30911 18.8083 1.04256 18.9196 0.776143 19.0527C0.568743 19.1564 0.460173 19.3896 0.513448 19.6152C0.566995 19.8405 0.768152 20 0.999776 20H5.99978C6.23133 19.9999 6.43261 19.8405 6.4861 19.6152C6.53933 19.3896 6.43066 19.1565 6.22341 19.0527C5.95695 18.9196 5.6905 18.8083 5.46071 18.7109C5.22311 18.6102 5.02792 18.5256 4.86794 18.4365C4.55444 18.2617 4.49978 18.1432 4.49978 18L4.50098 14.9844C4.50639 14.6765 4.65249 14.3823 4.91211 14.1934C5.33183 13.8866 5.92251 13.9513 6.26367 14.3545L9.61816 18.3223C9.70395 18.4238 9.74465 18.4927 9.76465 18.5322C9.7121 18.5767 9.61851 18.64 9.4502 18.7256C9.35917 18.7719 9.25819 18.8203 9.14355 18.875C9.03073 18.9289 8.90613 18.9879 8.77637 19.0527C8.56897 19.1564 8.46041 19.3896 8.51367 19.6152C8.56709 19.8407 8.76826 20 9 20H14C14.2318 20 14.4329 19.8407 14.4863 19.6152C14.5396 19.3896 14.431 19.1564 14.2236 19.0527C13.9554 18.9186 13.6909 18.8082 13.4443 18.708C13.1926 18.6057 12.967 18.517 12.749 18.418C12.3211 18.2236 11.9743 18.0112 11.6924 17.6777L7.79199 13.0635C7.66952 12.9186 7.53543 12.7885 7.39355 12.6729L11.0781 10.4268L11.0791 10.4277C12.4282 9.61193 12.8009 9.40612 13.3535 8.85352C13.4963 8.71055 13.5392 8.49532 13.4619 8.30859C13.3845 8.12198 13.202 8.00015 13 8H10C9.79796 8.00015 9.61546 8.12194 9.53809 8.30859C9.46077 8.49534 9.50365 8.71053 9.64648 8.85352C9.65875 8.86582 9.66803 8.87936 9.67773 8.88965C9.62578 8.93411 9.54906 8.99518 9.43457 9.07324C9.28468 9.17543 9.09523 9.294 8.8584 9.43945L4.50098 12.0947V2.75Z" fill="black"/>
</svg>
