<svg width="13" height="24" viewBox="0 0 13 24" fill="none" xmlns="http://www.w3.org/2000/svg">
<path fill-rule="evenodd" clip-rule="evenodd" d="M10 1.75C10.5523 1.75 11 2.19772 11 2.75V18C11 18.1264 11.0271 18.2045 11.0605 18.2617C11.0972 18.3243 11.1587 18.3915 11.2666 18.4717C11.3783 18.5547 11.516 18.635 11.6953 18.7363C11.8665 18.8331 12.0715 18.9468 12.2773 19.084C12.4606 19.2061 12.5422 19.4337 12.4785 19.6445C12.4147 19.8554 12.2203 20 12 20H10C9.54861 20 9.1673 19.7008 9.04297 19.29C8.1999 19.9054 7.14545 20.25 6 20.25C3.23858 20.25 1 18.2614 1 15.25V12.75C1 9.98858 3.23858 7.75 6 7.75C7.12569 7.75 8.16431 8.12223 9 8.75V2.75C9 2.19772 9.44772 1.75 10 1.75ZM6 9.75C4.34315 9.75 3 11.0931 3 12.75V15.25C3 17.1569 4.34315 18.25 6 18.25C7.65686 18.25 9 17.1569 9 15.25V12.75C9 11.0931 7.65686 9.75 6 9.75Z" fill="black"/>
</svg>
