<svg width="10" height="24" viewBox="0 0 10 24" fill="none" xmlns="http://www.w3.org/2000/svg">
<path d="M5.48045 15.3281C6.07453 15.5287 6.49998 16.0911 6.49998 16.75C6.49998 17.5784 5.82841 18.25 4.99998 18.25C4.17128 18.25 3.42288 17.9151 2.87889 17.3711C2.48847 16.9807 1.85537 16.9809 1.46483 17.3711C1.0743 17.7616 1.0743 18.3946 1.46483 18.7852C2.36855 19.6889 3.61955 20.25 4.99998 20.25C6.93298 20.25 8.49998 18.683 8.49998 16.75C8.49998 15.2146 7.51277 13.9129 6.14061 13.4404L4.01953 12.6719C3.42545 12.4712 3 11.9089 3 11.25C3 10.4216 3.67157 9.75 4.5 9.75C5.3287 9.75 6.07711 10.0849 6.62109 10.6289C7.01152 11.0193 7.64461 11.0191 8.03516 10.6289C8.42568 10.2384 8.42568 9.60537 8.03516 9.21484C7.13143 8.31112 5.88043 7.75 4.5 7.75C2.567 7.75 1 9.317 1 11.25C1 12.7854 1.98719 14.0871 3.35936 14.5596L5.48045 15.3281Z" fill="black"/>
</svg>
