<svg width="15" height="24" viewBox="0 0 15 24" fill="none" xmlns="http://www.w3.org/2000/svg">
<path d="M4.99978 8C5.2019 8.00008 5.38431 8.12186 5.46169 8.30859C5.53902 8.49537 5.49619 8.71054 5.35329 8.85352C5.21705 8.98976 5.13468 9.07005 5.07497 9.14355C5.04747 9.17744 5.03427 9.19806 5.02907 9.20801C5.03126 9.21902 5.03757 9.24147 5.05446 9.27832C5.09293 9.36216 5.17194 9.48574 5.31911 9.67188L7.49978 12.3984L9.67946 9.67188C9.82681 9.48554 9.90662 9.3622 9.94509 9.27832C9.96198 9.24147 9.9683 9.21899 9.97048 9.20801C9.96532 9.19811 9.9521 9.17747 9.92458 9.14355C9.86488 9.07005 9.7825 8.98975 9.64626 8.85352C9.50326 8.71052 9.46047 8.49543 9.53786 8.30859C9.61529 8.12184 9.7976 8 9.99978 8H12.9998C13.2019 8.0001 13.3843 8.12187 13.4617 8.30859C13.539 8.49536 13.4962 8.71054 13.3533 8.85352C13.0735 9.13334 12.7758 9.3368 12.5359 9.52246C12.2901 9.7127 12.0343 9.93251 11.74 10.2998L8.78103 14L11.739 17.6973C11.9977 18.0179 12.3289 18.2257 12.7498 18.418C12.9659 18.5167 13.1912 18.6057 13.4431 18.708C13.6898 18.8081 13.955 18.9185 14.2234 19.0527C14.4307 19.1565 14.5394 19.3896 14.4861 19.6152C14.4327 19.8407 14.2315 19.9999 13.9998 20H8.99978C8.76804 20 8.56688 19.8407 8.51345 19.6152C8.46017 19.3895 8.56874 19.1564 8.77614 19.0527C8.90625 18.9877 9.03143 18.9281 9.14528 18.874C9.26082 18.8192 9.36303 18.7712 9.45583 18.7246C9.64238 18.6309 9.74571 18.5643 9.80153 18.5146C9.78598 18.4799 9.75169 18.4178 9.67751 18.3232L7.49978 15.6016L5.32107 18.3232C5.24711 18.4176 5.21358 18.4799 5.19802 18.5146C5.25388 18.5643 5.35724 18.631 5.54372 18.7246C5.6365 18.7712 5.73876 18.8192 5.85427 18.874C5.96811 18.9281 6.09333 18.9877 6.22341 19.0527C6.4307 19.1565 6.53934 19.3896 6.48611 19.6152C6.4327 19.8406 6.23144 19.9999 5.99978 20H0.999777C0.768043 20 0.566888 19.8407 0.513449 19.6152C0.460172 19.3895 0.568737 19.1564 0.776144 19.0527C1.04451 18.9186 1.30981 18.8081 1.55642 18.708C1.80833 18.6057 2.03368 18.5167 2.24978 18.418C2.67069 18.2257 3.0019 18.0179 3.26052 17.6973L6.21853 14L3.25857 10.2998C2.96441 9.93273 2.70937 9.71263 2.46364 9.52246C2.22372 9.33679 1.92612 9.13335 1.64626 8.85352C1.50326 8.71052 1.46047 8.49543 1.53786 8.30859C1.61529 8.12184 1.7976 8 1.99978 8H4.99978Z" fill="black"/>
</svg>
