<svg width="11" height="24" viewBox="0 0 10.33 24" fill="none" xmlns="http://www.w3.org/2000/svg">
<path d="M1 15.25V12.75C1 9.98858 3.23858 7.75 6 7.75C7.38044 7.75 8.63143 8.31112 9.53516 9.21484C9.92568 9.60537 9.92568 10.2384 9.53516 10.6289C9.14461 11.0191 8.51152 11.0193 8.12109 10.6289C7.57711 10.0849 6.8287 9.75 6 9.75C4.34315 9.75 3 11.0931 3 12.75V15.25C3 17.1569 4.34315 18.25 6 18.25C6.8287 18.25 7.57711 17.9151 8.12109 17.3711C8.51152 16.9807 9.14461 16.9809 9.53516 17.3711C9.92568 17.7616 9.92568 18.3946 9.53516 18.7852C8.63143 19.6889 7.38043 20.25 6 20.25C3.23858 20.25 1 18.2614 1 15.25Z" fill="black"/>
</svg>
