<svg width="15" height="24" viewBox="0 0 15 24" fill="none" xmlns="http://www.w3.org/2000/svg">
<path d="M3.50026 1.75C4.05243 1.75014 4.50026 2.1978 4.50026 2.75V8.75C5.33591 8.12231 6.37466 7.75001 7.50026 7.75C10.2616 7.75012 12.5003 9.98865 12.5003 12.75V18C12.5003 18.1432 12.555 18.2617 12.8684 18.4365C13.0284 18.5256 13.2236 18.6102 13.4612 18.7109C13.691 18.8083 13.9574 18.9196 14.2239 19.0527C14.4312 19.1565 14.5398 19.3896 14.4866 19.6152C14.4331 19.8405 14.2318 19.9999 14.0003 20H9.00026C8.76866 20 8.56748 19.8405 8.51393 19.6152C8.46067 19.3896 8.56926 19.1564 8.77663 19.0527C9.04303 18.9196 9.3096 18.8083 9.53932 18.7109C9.77683 18.6103 9.97218 18.5256 10.1321 18.4365C10.4453 18.2618 10.5003 18.1432 10.5003 18V12.75C10.5003 11.0932 9.15701 9.75012 7.50026 9.75C5.84344 9.75003 4.50026 11.0932 4.50026 12.75V18C4.50026 18.1432 4.55494 18.2617 4.86843 18.4365C5.02833 18.5256 5.22378 18.6103 5.4612 18.7109C5.69089 18.8083 5.9576 18.9196 6.22389 19.0527C6.43087 19.1566 6.53972 19.3898 6.48659 19.6152C6.43313 19.8403 6.23161 19.9997 6.00026 20H1.00026C0.768649 20 0.567479 19.8405 0.513933 19.6152C0.460664 19.3896 0.569244 19.1564 0.776628 19.0527C1.04304 18.9196 1.3096 18.8083 1.53932 18.7109C1.77684 18.6103 1.97218 18.5256 2.1321 18.4365C2.44529 18.2618 2.50026 18.1432 2.50026 18V2.75C2.50026 2.19772 2.94798 1.75 3.50026 1.75Z" fill="black"/>
</svg>
