<svg width="7" height="24" viewBox="0 0 7 24" fill="none" xmlns="http://www.w3.org/2000/svg">
<path d="M3.50026 3.75C4.1905 3.75014 4.75026 4.30973 4.75026 5C4.75026 5.69027 4.1905 6.24986 3.50026 6.25C2.80991 6.24999 2.25026 5.69035 2.25026 5C2.25026 4.30965 2.80991 3.75001 3.50026 3.75Z" fill="black"/>
<path fill-rule="evenodd" clip-rule="evenodd" d="M4.50026 18C4.50026 18.1432 4.55495 18.2617 4.86842 18.4365C5.02833 18.5256 5.22377 18.6103 5.4612 18.7109C5.69089 18.8083 5.95759 18.9196 6.22389 19.0527C6.43088 19.1566 6.53973 19.3898 6.48659 19.6152C6.43313 19.8403 6.23162 19.9997 6.00026 20H1.00026C0.768687 20 0.567512 19.8404 0.513932 19.6152C0.460665 19.3896 0.56925 19.1564 0.776627 19.0527C1.04291 18.9197 1.3097 18.8083 1.53932 18.7109C1.77666 18.6103 1.97226 18.5256 2.1321 18.4365C2.44499 18.2619 2.50026 18.1431 2.50026 18V10C2.50026 9.71336 2.4235 9.58115 2.31569 9.46094C2.24795 9.38544 2.16368 9.31125 2.04421 9.20996C1.93115 9.11412 1.78905 8.99581 1.64674 8.85352C1.50375 8.71052 1.46096 8.49543 1.53835 8.30859C1.61578 8.12185 1.79809 8 2.00026 8H5.00026C5.20236 8.00011 5.3848 8.12188 5.46217 8.30859C5.53949 8.49535 5.49664 8.71054 5.35378 8.85352C5.21148 8.99581 5.06938 9.11411 4.95631 9.20996C4.83681 9.31126 4.75259 9.38545 4.68483 9.46094C4.57695 9.58119 4.50026 9.71324 4.50026 10V18Z" fill="black"/>
</svg>
