<svg width="8" height="24" viewBox="0 0 7.5 24" fill="none" xmlns="http://www.w3.org/2000/svg">
<g clip-path="url(#clip0_544_46)">
<path d="M9.32812 2.92188C8.60545 2.19928 7.60408 1.75009 6.5 1.75C4.291 1.75017 2.5 3.54096 2.5 5.75V18C2.5 18.1432 2.44481 18.2618 2.13161 18.4365C1.97169 18.5256 1.77637 18.6103 1.53884 18.7109C1.30911 18.8083 1.04256 18.9196 0.776143 19.0527C0.568743 19.1564 0.460173 19.3896 0.513448 19.6152C0.566995 19.8405 0.768152 20 0.999776 20H5.99978C6.23133 19.9999 6.43261 19.8405 6.4861 19.6152C6.53933 19.3896 6.43066 19.1565 6.22341 19.0527C5.95695 18.9196 5.6905 18.8083 5.46071 18.7109C5.22311 18.6102 5.02792 18.5256 4.86794 18.4365C4.55444 18.2617 4.5 18.1432 4.5 18V10H6.5C7.05224 9.99995 7.5 9.55225 7.5 9C7.5 8.44775 7.05224 8.00005 6.5 8H4.5V5.75C4.5 4.64553 5.39557 3.75017 6.5 3.75C7.05235 3.75009 7.55113 3.97308 7.91406 4.33594C8.30447 4.72617 8.93763 4.72603 9.32812 4.33594C9.71842 3.94546 9.71842 3.31236 9.32812 2.92188Z" fill="black"/>
</g>
<defs>
<clipPath id="clip0_544_46">
<rect width="7.5" height="24" fill="white"/>
</clipPath>
</defs>
</svg>
