<svg width="17" height="24" viewBox="0 0 17 24" fill="none" xmlns="http://www.w3.org/2000/svg">
<path fill-rule="evenodd" clip-rule="evenodd" d="M8.49978 4C11.8134 4.00024 14.4998 6.68644 14.4998 10V18C14.4998 18.1432 14.5544 18.2617 14.8679 18.4365C15.0279 18.5256 15.2233 18.6103 15.4607 18.7109C15.6904 18.8083 15.9571 18.9196 16.2234 19.0527C16.4304 19.1566 16.5392 19.3898 16.4861 19.6152C16.4326 19.8403 16.2311 19.9997 15.9998 20H10.9998C10.7682 20 10.567 19.8405 10.5134 19.6152C10.4602 19.3896 10.5687 19.1564 10.7761 19.0527C11.0424 18.9197 11.3092 18.8083 11.5388 18.7109C11.7762 18.6103 11.9718 18.5256 12.1316 18.4365C12.4445 18.2619 12.4998 18.1431 12.4998 18V14H4.49978V18C4.49978 18.1432 4.55444 18.2617 4.86794 18.4365C5.02785 18.5256 5.22327 18.6103 5.46071 18.7109C5.69041 18.8083 5.9571 18.9196 6.22341 19.0527C6.4304 19.1566 6.53925 19.3898 6.4861 19.6152C6.43265 19.8403 6.23114 19.9997 5.99978 20H0.999776C0.768187 20 0.567031 19.8405 0.513448 19.6152C0.460173 19.3896 0.568743 19.1564 0.776143 19.0527C1.04244 18.9197 1.30921 18.8083 1.53884 18.7109C1.77619 18.6103 1.97177 18.5256 2.13161 18.4365C2.44451 18.2619 2.49978 18.1431 2.49978 18V10C2.49978 6.68634 5.18603 4.00007 8.49978 4ZM8.49978 6C6.29064 6.00007 4.49978 7.79091 4.49978 10V12H12.4998V10C12.4998 7.79109 10.7087 6.00037 8.49978 6Z" fill="black"/>
</svg>
