<svg width="10" height="24" viewBox="0 0 9.62 24" fill="none" xmlns="http://www.w3.org/2000/svg">
<g clip-path="url(#clip0_539_166)">
<path d="M6.50026 7.75C7.60445 7.75007 8.60568 8.19917 9.32838 8.92188C9.71874 9.31237 9.71874 9.94545 9.32838 10.3359C8.93788 10.7262 8.30478 10.7263 7.91432 10.3359C7.55135 9.97297 7.05272 9.75007 6.50026 9.75C5.39569 9.75 4.50026 10.6454 4.50026 11.75V18C4.50026 18.1432 4.55495 18.2617 4.86842 18.4365C5.02833 18.5256 5.22377 18.6103 5.4612 18.7109C5.69089 18.8083 5.95759 18.9196 6.22389 19.0527C6.43089 19.1566 6.53973 19.3898 6.48659 19.6152C6.43313 19.8403 6.23162 19.9997 6.00026 20H1.00026C0.768687 20 0.567512 19.8404 0.513932 19.6152C0.460665 19.3896 0.56925 19.1564 0.776627 19.0527C1.04291 18.9197 1.3097 18.8083 1.53932 18.7109C1.77666 18.6103 1.97226 18.5256 2.1321 18.4365C2.44499 18.2619 2.50026 18.1431 2.50026 18V11.75C2.50026 9.54086 4.29112 7.75 6.50026 7.75Z" fill="black"/>
</g>
<defs>
<clipPath id="clip0_539_166">
<rect width="9.62" height="24" fill="white"/>
</clipPath>
</defs>
</svg>
