<svg width="13" height="24" viewBox="0 0 13 24" fill="none" xmlns="http://www.w3.org/2000/svg">
<path d="M3.50104 15.25C3.50104 16.9068 4.8443 18.2499 6.50104 18.25C8.15764 18.2497 9.50104 16.9067 9.50104 15.25L9.50006 10C9.50006 9.7134 9.42328 9.58114 9.31549 9.46094C9.24778 9.38549 9.1634 9.31118 9.04401 9.20996C8.93099 9.11415 8.78879 8.99574 8.64655 8.85352C8.50364 8.71053 8.46081 8.49538 8.53815 8.30859C8.61557 8.12193 8.79798 8.00007 9.00006 8H12.0001C12.2021 8.00016 12.3846 8.12195 12.462 8.30859C12.5393 8.49532 12.4964 8.71055 12.3536 8.85352C12.2113 8.99574 12.0692 9.11414 11.9561 9.20996C11.8367 9.31119 11.7524 9.3855 11.6846 9.46094C11.5768 9.58117 11.5001 9.71331 11.5001 10L11.501 15.25C11.501 18.0112 9.26221 20.2497 6.50104 20.25C3.73973 20.2499 1.50104 18.0113 1.50104 15.25L1.50006 10C1.50006 9.7134 1.42328 9.58114 1.31549 9.46094C1.24778 9.38549 1.1634 9.31118 1.04401 9.20996C0.930987 9.11415 0.788792 8.99574 0.646549 8.85352C0.50364 8.71053 0.460813 8.49538 0.53815 8.30859C0.615567 8.12193 0.797983 8.00007 1.00006 8H4.00006C4.20209 8.00016 4.38461 8.12195 4.46198 8.30859C4.53926 8.49532 4.49639 8.71055 4.35358 8.85352C4.21135 8.99574 4.06915 9.11414 3.95612 9.20996C3.83671 9.31119 3.75236 9.3855 3.68463 9.46094C3.57679 9.58117 3.50006 9.71331 3.50006 10L3.50104 15.25Z" fill="black"/>
</svg>
