<svg width="11" height="24" viewBox="0 0 11 24" fill="none" xmlns="http://www.w3.org/2000/svg">
<path fill-rule="evenodd" clip-rule="evenodd" d="M6 7.75C8.20914 7.75 10 9.54086 10 11.75V12C10 13.6569 8.65685 15 7 15H3V15.25C3 16.9069 4.34314 18.25 6 18.25C6.8287 18.25 7.57711 17.9151 8.12109 17.3711C8.51152 16.9807 9.14461 16.9809 9.53516 17.3711C9.92568 17.7616 9.92568 18.3946 9.53516 18.7852C8.63143 19.6889 7.38043 20.25 6 20.25C3.23857 20.25 1 18.0114 1 15.25V12.75C1 9.98858 3.23857 7.75 6 7.75ZM6 9.75C4.34314 9.75 3 11.0931 3 12.75V13H7C7.55228 13 8 12.5523 8 12V11.75C8 10.6454 7.10457 9.75 6 9.75Z" fill="black"/>
</svg>
