<svg width="13" height="24" viewBox="0 0 13 24" fill="none" xmlns="http://www.w3.org/2000/svg">
<g clip-path="url(#clip0_544_17)">
<path d="M3.99999 8C4.20217 8.00002 4.3845 8.12181 4.4619 8.30859C4.53927 8.49541 4.49647 8.71052 4.3535 8.85352C4.2172 8.98981 4.07588 9.11166 3.97948 9.19922C3.87357 9.29542 3.81054 9.35954 3.76854 9.41797C3.73264 9.46798 3.71422 9.51099 3.70604 9.56348C3.69696 9.62191 3.69698 9.71987 3.73631 9.88281L5.52635 17.4795C5.63268 17.9305 6.03588 18.2498 6.49999 18.25C6.96385 18.2499 7.36721 17.9308 7.47362 17.4795L9.26366 9.88281C9.30299 9.71988 9.30301 9.62191 9.29393 9.56348C9.28575 9.51099 9.26733 9.46798 9.23143 9.41797C9.18944 9.35954 9.1264 9.29543 9.02049 9.19922C8.9241 9.11166 8.78278 8.98982 8.64647 8.85352C8.50347 8.71052 8.46068 8.49543 8.53807 8.30859C8.61548 8.1218 8.79778 8 8.99999 8H12C12.2022 8.00001 12.3845 8.1218 12.4619 8.30859C12.5393 8.49542 12.4965 8.71052 12.3535 8.85352C12.2084 8.99867 12.0637 9.11739 11.9394 9.21777C11.8095 9.32273 11.7099 9.40163 11.6191 9.48828C11.459 9.64128 11.3372 9.80806 11.2676 10.1113L8.45995 21.999C8.12696 23.2927 6.95391 24.25 5.55467 24.25C4.72663 24.2499 3.97532 23.9128 3.43358 23.3711C3.0432 22.9806 3.04316 22.3475 3.43358 21.957C3.82407 21.5666 4.45713 21.5667 4.84764 21.957C5.02964 22.139 5.27836 22.2499 5.55467 22.25C6.01917 22.25 6.41227 21.9324 6.52342 21.501L6.82323 20.2305C6.71707 20.2419 6.60969 20.25 6.50096 20.25C5.10993 20.2498 3.89952 19.2932 3.58006 17.9385L1.73241 10.1113C1.66277 9.80807 1.54101 9.64127 1.38085 9.48828C1.29012 9.40163 1.19044 9.32272 1.06053 9.21777C0.93628 9.11739 0.791618 8.99866 0.64647 8.85352C0.503471 8.71052 0.460681 8.49543 0.538072 8.30859C0.615482 8.1218 0.797785 8 0.999986 8H3.99999Z" fill="black"/>
</g>
<defs>
<clipPath id="clip0_544_17">
<rect width="13" height="24" fill="white"/>
</clipPath>
</defs>
</svg>
